<?xml version="1.0" encoding="UTF-8"?>
<svg width="88px" height="88px" viewBox="0 0 88 88" version="1.1" xmlns="http://www.w3.org/2000/svg" xmlns:xlink="http://www.w3.org/1999/xlink">
    <!-- Generator: Sketch 50.2 (55047) - http://www.bohemiancoding.com/sketch -->
    <title>files</title>
    <desc>Created with Sketch.</desc>
    <defs></defs>
    <g id="files" stroke="none" stroke-width="1" fill="none" fill-rule="evenodd">
        <g id="Functionicon" transform="translate(43.000000, 67.000000)" stroke="#000000" stroke-width="15">
            <path d="M135.021484,0 L120.715869,1.3e-06 C102.62064,3.2e-06 86.665184,11.8626048 81.453323,29.1910153 C72.578872,58.6968125 65.2057477,87.1139963 59.333949,114.442566 C53.4163186,141.984447 46.0734562,170.267439 37.3053618,199.29154 L37.3053595,199.29154 C32.3365207,215.739365 17.1819764,226.992192 0,226.992192" id="Path"></path>
        </g>
        <g id="Group" transform="translate(26.000000, 20.000000)" fill="#FFFFFF" fill-rule="nonzero">
            <path d="M5.01333333,44.0609524 C4.45986133,44.0609524 4.01066667,43.619779 4.01066667,43.0761905 L4.01066667,6.64 L1.00266667,6.64 C0.449194667,6.64 0,7.08117333 0,7.6247619 L0,47.0152381 C0,47.5588267 0.449194667,48 1.00266667,48 L29.0773333,48 C29.6308053,48 30.08,47.5588267 30.08,47.0152381 L30.08,44.0609524 L5.01333333,44.0609524 Z" id="Shape" opacity="0.5"></path>
            <path d="M36.72,12.8019048 C36.72,12.5399581 36.6137173,12.2898286 36.4272213,12.1066629 L24.3952213,0.28952 C24.20672,0.104384762 23.9500373,0 23.6853333,0 L7.64266667,0 C7.08919467,0 6.64,0.441173333 6.64,0.984761905 L6.64,40.3752381 C6.64,40.9188267 7.08919467,41.36 7.64266667,41.36 L35.7173333,41.36 C36.2708053,41.36 36.72,40.9188267 36.72,40.3752381 L36.72,12.8019048 Z M22.6826667,13.7866667 L22.6826667,1.96952381 L34.7146667,13.7866667 L22.6826667,13.7866667 Z" id="Shape"></path>
        </g>
    </g>
</svg>